E:UsersJOELDownloadsHappy Twon 1x03 HDTV + AC3.mkv
   General
      Complete name : E:UsersJOELDownloadsHappy Twon 1x03 HDTV + AC3.mkv
      Format : Matroska
      File size : 444 MiB
      Duration : 40mn 37s
      Overall bit rate : 1 528 Kbps
      Encoded date : UTC 2010-05-27 17:35:15
      Writing application : VirtualDubMod 1.5.10.2 (build 2540/release)
      Writing library : libebml-0.7.5 & libmatroska-0.7.7
   Video #1
      ID : 1
      Format : MPEG-4 Visual
      Format profile : Simple@L3
      Format settings, BVOP : No
      Format settings, QPel : No
      Format settings, GMC : No warppoints
      Format settings, Matrix : Default (H.263)
      Codec ID : XVID
      Codec ID/Hint : XviD
      Duration : 40mn 37s
      Bit rate : 1 050 Kbps
      Width : 624 pixels
      Height : 352 pixels
      Display aspect ratio : 16:9
      Original display aspect ratio : 16:9
      Frame rate : 25.000 fps
      Resolution : 24 bits
      Colorimetry : 4:2:0
      Scan type : Progressive
      Bits/(Pixel*Frame) : 0.191
      Stream size : 305 MiB (69%)
      Writing library : XviD 1.2.0.dev49
   Audio #2
      ID : 2
      Format : AC-3
      Format/Info : Audio Coding 3
      Codec ID : A_AC3
      Duration : 40mn 37s
      Bit rate mode : Constant
      Bit rate : 448 Kbps
      Channel(s) : 2 channels
      Channel positions : L R
      Sampling rate : 48.0 KHz
      Stream size : 130 MiB (29%)